<svg width="2927" height="4338" viewBox="0 0 2927 4338" fill="none" xmlns="http://www.w3.org/2000/svg">
<mask id="mask0_938_260" style="mask-type:luminance" maskUnits="userSpaceOnUse" x="0" y="0" width="2927" height="4338">
<path d="M2927 0.230713H0.115723V4337.67H2927V0.230713Z" fill="white"/>
</mask>
<g mask="url(#mask0_938_260)">
<g opacity="0.5">
<path d="M-11307.1 2333.16L3477.7 -5760.03L18262.5 2333.16L3477.7 10426.4L-11307.1 2333.16Z" stroke="#333333" stroke-width="0.25" stroke-miterlimit="10"/>
<path d="M2891.02 10105.2L17675.8 2011.99" stroke="#333333" stroke-width="0.25" stroke-miterlimit="10"/>
<path d="M2773.66 10041L17558.4 1947.76" stroke="#333333" stroke-width="0.25" stroke-miterlimit="10"/>
<path d="M2656.33 9976.72L17441.1 1883.55" stroke="#333333" stroke-width="0.25" stroke-miterlimit="10"/>
<path d="M2539 9912.48L17323.8 1819.32" stroke="#333333" stroke-width="0.25" stroke-miterlimit="10"/>
<path d="M2421.64 9848.25L17206.4 1755.08" stroke="#333333" stroke-width="0.25" stroke-miterlimit="10"/>
<path d="M2304.31 9784.04L17089.1 1690.85" stroke="#333333" stroke-width="0.25" stroke-miterlimit="10"/>
<path d="M2186.98 9719.81L16971.8 1626.61" stroke="#333333" stroke-width="0.25" stroke-miterlimit="10"/>
<path d="M2069.62 9655.57L16854.4 1562.38" stroke="#333333" stroke-width="0.25" stroke-miterlimit="10"/>
<path d="M1952.29 9591.34L16737.1 1498.15" stroke="#333333" stroke-width="0.25" stroke-miterlimit="10"/>
<path d="M1834.96 9527.11L16619.7 1433.91" stroke="#333333" stroke-width="0.25" stroke-miterlimit="10"/>
<path d="M1717.6 9462.87L16502.4 1369.68" stroke="#333333" stroke-width="0.25" stroke-miterlimit="10"/>
<path d="M1600.28 9398.64L16385 1305.44" stroke="#333333" stroke-width="0.25" stroke-miterlimit="10"/>
<path d="M1482.94 9334.4L16267.7 1241.21" stroke="#333333" stroke-width="0.25" stroke-miterlimit="10"/>
<path d="M1365.59 9270.17L16150.4 1177" stroke="#333333" stroke-width="0.25" stroke-miterlimit="10"/>
<path d="M1248.26 9205.93L16033 1112.77" stroke="#333333" stroke-width="0.25" stroke-miterlimit="10"/>
<path d="M1130.93 9141.7L15915.7 1048.53" stroke="#333333" stroke-width="0.25" stroke-miterlimit="10"/>
<path d="M1013.57 9077.5L15798.4 984.3" stroke="#333333" stroke-width="0.25" stroke-miterlimit="10"/>
<path d="M896.238 9013.26L15681 920.065" stroke="#333333" stroke-width="0.25" stroke-miterlimit="10"/>
<path d="M778.907 8949.03L15563.7 855.831" stroke="#333333" stroke-width="0.25" stroke-miterlimit="10"/>
<path d="M661.548 8884.79L15446.3 791.598" stroke="#333333" stroke-width="0.25" stroke-miterlimit="10"/>
<path d="M544.218 8820.56L15329 727.363" stroke="#333333" stroke-width="0.25" stroke-miterlimit="10"/>
<path d="M426.887 8756.33L15211.7 663.129" stroke="#333333" stroke-width="0.25" stroke-miterlimit="10"/>
<path d="M309.53 8692.09L15094.3 598.895" stroke="#333333" stroke-width="0.25" stroke-miterlimit="10"/>
<path d="M192.198 8627.86L14977 534.661" stroke="#333333" stroke-width="0.25" stroke-miterlimit="10"/>
<path d="M74.8677 8563.62L14859.6 470.455" stroke="#333333" stroke-width="0.25" stroke-miterlimit="10"/>
<path d="M-42.4907 8499.39L14742.3 406.22" stroke="#333333" stroke-width="0.25" stroke-miterlimit="10"/>
<path d="M-159.821 8435.15L14625 341.986" stroke="#333333" stroke-width="0.25" stroke-miterlimit="10"/>
<path d="M-277.152 8370.95L14507.6 277.752" stroke="#333333" stroke-width="0.25" stroke-miterlimit="10"/>
<path d="M-394.51 8306.71L14390.3 213.518" stroke="#333333" stroke-width="0.25" stroke-miterlimit="10"/>
<path d="M-511.84 8242.48L14272.9 149.284" stroke="#333333" stroke-width="0.25" stroke-miterlimit="10"/>
<path d="M-629.169 8178.24L14155.6 85.0493" stroke="#333333" stroke-width="0.25" stroke-miterlimit="10"/>
<path d="M-746.529 8114.01L14038.3 20.8154" stroke="#333333" stroke-width="0.25" stroke-miterlimit="10"/>
<path d="M-863.858 8049.78L13920.9 -43.4189" stroke="#333333" stroke-width="0.25" stroke-miterlimit="10"/>
<path d="M-981.189 7985.54L13803.6 -107.653" stroke="#333333" stroke-width="0.25" stroke-miterlimit="10"/>
<path d="M-1098.55 7921.31L13686.2 -171.887" stroke="#333333" stroke-width="0.25" stroke-miterlimit="10"/>
<path d="M-1215.88 7857.07L13568.9 -236.093" stroke="#333333" stroke-width="0.25" stroke-miterlimit="10"/>
<path d="M-1333.21 7792.84L13451.6 -300.327" stroke="#333333" stroke-width="0.25" stroke-miterlimit="10"/>
<path d="M-1450.57 7728.61L13334.2 -364.562" stroke="#333333" stroke-width="0.25" stroke-miterlimit="10"/>
<path d="M-1567.9 7664.4L13216.9 -428.795" stroke="#333333" stroke-width="0.25" stroke-miterlimit="10"/>
<path d="M-1685.23 7600.17L13099.5 -493.03" stroke="#333333" stroke-width="0.25" stroke-miterlimit="10"/>
<path d="M-1802.56 7535.93L12982.2 -557.264" stroke="#333333" stroke-width="0.25" stroke-miterlimit="10"/>
<path d="M-1919.92 7471.7L12864.9 -621.499" stroke="#333333" stroke-width="0.25" stroke-miterlimit="10"/>
<path d="M-2037.25 7407.46L12747.5 -685.733" stroke="#333333" stroke-width="0.25" stroke-miterlimit="10"/>
<path d="M-2154.58 7343.23L12630.2 -749.967" stroke="#333333" stroke-width="0.25" stroke-miterlimit="10"/>
<path d="M-2271.94 7278.99L12512.8 -814.201" stroke="#333333" stroke-width="0.25" stroke-miterlimit="10"/>
<path d="M-2389.27 7214.76L12395.5 -878.435" stroke="#333333" stroke-width="0.25" stroke-miterlimit="10"/>
<path d="M-2506.6 7150.53L12278.2 -942.641" stroke="#333333" stroke-width="0.25" stroke-miterlimit="10"/>
<path d="M-2623.95 7086.29L12160.8 -1006.88" stroke="#333333" stroke-width="0.25" stroke-miterlimit="10"/>
<path d="M-2741.28 7022.06L12043.5 -1071.11" stroke="#333333" stroke-width="0.25" stroke-miterlimit="10"/>
<path d="M-2858.61 6957.85L11926.2 -1135.34" stroke="#333333" stroke-width="0.25" stroke-miterlimit="10"/>
<path d="M-2975.97 6893.62L11808.8 -1199.58" stroke="#333333" stroke-width="0.25" stroke-miterlimit="10"/>
<path d="M-3093.3 6829.38L11691.5 -1263.81" stroke="#333333" stroke-width="0.25" stroke-miterlimit="10"/>
<path d="M-3210.63 6765.15L11574.1 -1328.05" stroke="#333333" stroke-width="0.25" stroke-miterlimit="10"/>
<path d="M-3327.99 6700.91L11456.8 -1392.28" stroke="#333333" stroke-width="0.25" stroke-miterlimit="10"/>
<path d="M-3445.32 6636.68L11339.4 -1456.51" stroke="#333333" stroke-width="0.25" stroke-miterlimit="10"/>
<path d="M-3562.65 6572.45L11222.1 -1520.75" stroke="#333333" stroke-width="0.25" stroke-miterlimit="10"/>
<path d="M-3680.01 6508.21L11104.8 -1584.98" stroke="#333333" stroke-width="0.25" stroke-miterlimit="10"/>
<path d="M-3797.34 6443.98L10987.4 -1649.19" stroke="#333333" stroke-width="0.25" stroke-miterlimit="10"/>
<path d="M-3914.67 6379.74L10870.1 -1713.42" stroke="#333333" stroke-width="0.25" stroke-miterlimit="10"/>
<path d="M-4032.03 6315.51L10752.8 -1777.66" stroke="#333333" stroke-width="0.25" stroke-miterlimit="10"/>
<path d="M-4149.36 6251.28L10635.4 -1841.89" stroke="#333333" stroke-width="0.25" stroke-miterlimit="10"/>
<path d="M-4266.69 6187.07L10518.1 -1906.13" stroke="#333333" stroke-width="0.25" stroke-miterlimit="10"/>
<path d="M-4384.05 6122.84L10400.8 -1970.36" stroke="#333333" stroke-width="0.25" stroke-miterlimit="10"/>
<path d="M-4501.38 6058.6L10283.4 -2034.59" stroke="#333333" stroke-width="0.25" stroke-miterlimit="10"/>
<path d="M-4618.71 5994.37L10166.1 -2098.83" stroke="#333333" stroke-width="0.25" stroke-miterlimit="10"/>
<path d="M-4736.07 5930.13L10048.7 -2163.06" stroke="#333333" stroke-width="0.25" stroke-miterlimit="10"/>
<path d="M-4853.4 5865.9L9931.37 -2227.3" stroke="#333333" stroke-width="0.25" stroke-miterlimit="10"/>
<path d="M-4970.73 5801.66L9814.04 -2291.53" stroke="#333333" stroke-width="0.25" stroke-miterlimit="10"/>
<path d="M-5088.09 5737.43L9696.71 -2355.74" stroke="#333333" stroke-width="0.25" stroke-miterlimit="10"/>
<path d="M-5205.42 5673.2L9579.35 -2419.97" stroke="#333333" stroke-width="0.25" stroke-miterlimit="10"/>
<path d="M-5322.75 5608.96L9462.02 -2484.2" stroke="#333333" stroke-width="0.25" stroke-miterlimit="10"/>
<path d="M-5440.11 5544.73L9344.69 -2548.44" stroke="#333333" stroke-width="0.25" stroke-miterlimit="10"/>
<path d="M-5557.44 5480.52L9227.33 -2612.67" stroke="#333333" stroke-width="0.25" stroke-miterlimit="10"/>
<path d="M-5674.77 5416.29L9110.01 -2676.91" stroke="#333333" stroke-width="0.25" stroke-miterlimit="10"/>
<path d="M-5792.13 5352.05L8992.67 -2741.14" stroke="#333333" stroke-width="0.25" stroke-miterlimit="10"/>
<path d="M-5909.46 5287.82L8875.32 -2805.38" stroke="#333333" stroke-width="0.25" stroke-miterlimit="10"/>
<path d="M-6026.79 5223.59L8757.99 -2869.61" stroke="#333333" stroke-width="0.25" stroke-miterlimit="10"/>
<path d="M-6144.14 5159.35L8640.66 -2933.84" stroke="#333333" stroke-width="0.25" stroke-miterlimit="10"/>
<path d="M-6261.47 5095.12L8523.3 -2998.08" stroke="#333333" stroke-width="0.25" stroke-miterlimit="10"/>
<path d="M-6378.8 5030.88L8405.97 -3062.31" stroke="#333333" stroke-width="0.25" stroke-miterlimit="10"/>
<path d="M-6496.16 4966.65L8288.64 -3126.52" stroke="#333333" stroke-width="0.25" stroke-miterlimit="10"/>
<path d="M-6613.49 4902.41L8171.28 -3190.75" stroke="#333333" stroke-width="0.25" stroke-miterlimit="10"/>
<path d="M-6730.82 4838.18L8053.95 -3254.99" stroke="#333333" stroke-width="0.25" stroke-miterlimit="10"/>
<path d="M-6848.18 4773.97L7936.62 -3319.22" stroke="#333333" stroke-width="0.25" stroke-miterlimit="10"/>
<path d="M-6965.51 4709.74L7819.26 -3383.46" stroke="#333333" stroke-width="0.25" stroke-miterlimit="10"/>
<path d="M-7082.84 4645.51L7701.93 -3447.69" stroke="#333333" stroke-width="0.25" stroke-miterlimit="10"/>
<path d="M-7200.2 4581.27L7584.6 -3511.92" stroke="#333333" stroke-width="0.25" stroke-miterlimit="10"/>
<path d="M-7317.53 4517.04L7467.24 -3576.16" stroke="#333333" stroke-width="0.25" stroke-miterlimit="10"/>
<path d="M-7434.86 4452.8L7349.91 -3640.39" stroke="#333333" stroke-width="0.25" stroke-miterlimit="10"/>
<path d="M-7552.22 4388.57L7232.58 -3704.62" stroke="#333333" stroke-width="0.25" stroke-miterlimit="10"/>
<path d="M-7669.55 4324.33L7115.22 -3768.86" stroke="#333333" stroke-width="0.25" stroke-miterlimit="10"/>
<path d="M-7786.88 4260.1L6997.89 -3833.07" stroke="#333333" stroke-width="0.25" stroke-miterlimit="10"/>
<path d="M-7904.21 4195.87L6880.56 -3897.3" stroke="#333333" stroke-width="0.25" stroke-miterlimit="10"/>
<path d="M-8021.57 4131.63L6763.2 -3961.53" stroke="#333333" stroke-width="0.25" stroke-miterlimit="10"/>
<path d="M-8138.9 4067.43L6645.87 -4025.77" stroke="#333333" stroke-width="0.25" stroke-miterlimit="10"/>
<path d="M-8256.23 4003.19L6528.54 -4090" stroke="#333333" stroke-width="0.25" stroke-miterlimit="10"/>
<path d="M-8373.59 3938.96L6411.18 -4154.24" stroke="#333333" stroke-width="0.25" stroke-miterlimit="10"/>
<path d="M-8490.92 3874.72L6293.85 -4218.47" stroke="#333333" stroke-width="0.25" stroke-miterlimit="10"/>
<path d="M-8608.25 3810.49L6176.52 -4282.71" stroke="#333333" stroke-width="0.25" stroke-miterlimit="10"/>
<path d="M-8725.61 3746.26L6059.16 -4346.94" stroke="#333333" stroke-width="0.25" stroke-miterlimit="10"/>
<path d="M-8842.94 3682.02L5941.83 -4411.17" stroke="#333333" stroke-width="0.25" stroke-miterlimit="10"/>
<path d="M-8960.27 3617.79L5824.5 -4475.41" stroke="#333333" stroke-width="0.25" stroke-miterlimit="10"/>
<path d="M-9077.63 3553.55L5707.14 -4539.61" stroke="#333333" stroke-width="0.25" stroke-miterlimit="10"/>
<path d="M-9194.96 3489.32L5589.81 -4603.85" stroke="#333333" stroke-width="0.25" stroke-miterlimit="10"/>
<path d="M-9312.29 3425.09L5472.48 -4668.08" stroke="#333333" stroke-width="0.25" stroke-miterlimit="10"/>
<path d="M-9429.65 3360.88L5355.13 -4732.32" stroke="#333333" stroke-width="0.25" stroke-miterlimit="10"/>
<path d="M-9546.98 3296.64L5237.79 -4796.55" stroke="#333333" stroke-width="0.25" stroke-miterlimit="10"/>
<path d="M-9664.31 3232.41L5120.46 -4860.78" stroke="#333333" stroke-width="0.25" stroke-miterlimit="10"/>
<path d="M-9781.67 3168.18L5003.11 -4925.02" stroke="#333333" stroke-width="0.25" stroke-miterlimit="10"/>
<path d="M-9899 3103.94L4885.78 -4989.25" stroke="#333333" stroke-width="0.25" stroke-miterlimit="10"/>
<path d="M-10016.3 3039.71L4768.44 -5053.49" stroke="#333333" stroke-width="0.25" stroke-miterlimit="10"/>
<path d="M-10133.7 2975.47L4651.11 -5117.72" stroke="#333333" stroke-width="0.25" stroke-miterlimit="10"/>
<path d="M-10251 2911.24L4533.76 -5181.96" stroke="#333333" stroke-width="0.25" stroke-miterlimit="10"/>
<path d="M-10368.3 2847.01L4416.43 -5246.16" stroke="#333333" stroke-width="0.25" stroke-miterlimit="10"/>
<path d="M-10485.7 2782.77L4299.1 -5310.4" stroke="#333333" stroke-width="0.25" stroke-miterlimit="10"/>
<path d="M-10603 2718.54L4181.74 -5374.63" stroke="#333333" stroke-width="0.25" stroke-miterlimit="10"/>
<path d="M-10720.4 2654.33L4064.41 -5438.86" stroke="#333333" stroke-width="0.25" stroke-miterlimit="10"/>
<path d="M-10837.7 2590.1L3947.08 -5503.1" stroke="#333333" stroke-width="0.25" stroke-miterlimit="10"/>
<path d="M-10955.1 2525.86L3829.72 -5567.33" stroke="#333333" stroke-width="0.25" stroke-miterlimit="10"/>
<path d="M-11072.4 2461.63L3712.39 -5631.57" stroke="#333333" stroke-width="0.25" stroke-miterlimit="10"/>
<path d="M-11189.7 2397.4L3595.06 -5695.8" stroke="#333333" stroke-width="0.25" stroke-miterlimit="10"/>
<path d="M2891.02 -5438.86L17675.8 2654.33" stroke="#333333" stroke-width="0.25" stroke-miterlimit="10"/>
<path d="M2773.66 -5374.63L17558.4 2718.54" stroke="#333333" stroke-width="0.25" stroke-miterlimit="10"/>
<path d="M2656.33 -5310.4L17441.1 2782.77" stroke="#333333" stroke-width="0.25" stroke-miterlimit="10"/>
<path d="M2539 -5246.16L17323.8 2847.01" stroke="#333333" stroke-width="0.25" stroke-miterlimit="10"/>
<path d="M2421.64 -5181.96L17206.4 2911.24" stroke="#333333" stroke-width="0.25" stroke-miterlimit="10"/>
<path d="M2304.31 -5117.72L17089.1 2975.47" stroke="#333333" stroke-width="0.25" stroke-miterlimit="10"/>
<path d="M2186.98 -5053.49L16971.8 3039.71" stroke="#333333" stroke-width="0.25" stroke-miterlimit="10"/>
<path d="M2069.62 -4989.25L16854.4 3103.94" stroke="#333333" stroke-width="0.25" stroke-miterlimit="10"/>
<path d="M1952.29 -4925.02L16737.1 3168.18" stroke="#333333" stroke-width="0.25" stroke-miterlimit="10"/>
<path d="M1834.96 -4860.78L16619.7 3232.41" stroke="#333333" stroke-width="0.25" stroke-miterlimit="10"/>
<path d="M1717.6 -4796.55L16502.4 3296.64" stroke="#333333" stroke-width="0.25" stroke-miterlimit="10"/>
<path d="M1600.28 -4732.32L16385 3360.88" stroke="#333333" stroke-width="0.25" stroke-miterlimit="10"/>
<path d="M1482.94 -4668.08L16267.7 3425.09" stroke="#333333" stroke-width="0.25" stroke-miterlimit="10"/>
<path d="M1365.59 -4603.85L16150.4 3489.32" stroke="#333333" stroke-width="0.25" stroke-miterlimit="10"/>
<path d="M1248.26 -4539.61L16033 3553.55" stroke="#333333" stroke-width="0.25" stroke-miterlimit="10"/>
<path d="M1130.93 -4475.41L15915.7 3617.79" stroke="#333333" stroke-width="0.25" stroke-miterlimit="10"/>
<path d="M1013.57 -4411.17L15798.4 3682.02" stroke="#333333" stroke-width="0.25" stroke-miterlimit="10"/>
<path d="M896.238 -4346.94L15681 3746.26" stroke="#333333" stroke-width="0.25" stroke-miterlimit="10"/>
<path d="M778.907 -4282.71L15563.7 3810.49" stroke="#333333" stroke-width="0.25" stroke-miterlimit="10"/>
<path d="M661.548 -4218.47L15446.3 3874.72" stroke="#333333" stroke-width="0.25" stroke-miterlimit="10"/>
<path d="M544.218 -4154.24L15329 3938.96" stroke="#333333" stroke-width="0.25" stroke-miterlimit="10"/>
<path d="M426.887 -4090L15211.7 4003.19" stroke="#333333" stroke-width="0.25" stroke-miterlimit="10"/>
<path d="M309.53 -4025.77L15094.3 4067.43" stroke="#333333" stroke-width="0.25" stroke-miterlimit="10"/>
<path d="M192.198 -3961.53L14977 4131.63" stroke="#333333" stroke-width="0.25" stroke-miterlimit="10"/>
<path d="M74.8677 -3897.3L14859.6 4195.87" stroke="#333333" stroke-width="0.25" stroke-miterlimit="10"/>
<path d="M-42.4907 -3833.07L14742.3 4260.1" stroke="#333333" stroke-width="0.25" stroke-miterlimit="10"/>
<path d="M-159.821 -3768.86L14625 4324.33" stroke="#333333" stroke-width="0.25" stroke-miterlimit="10"/>
<path d="M-277.152 -3704.62L14507.6 4388.57" stroke="#333333" stroke-width="0.25" stroke-miterlimit="10"/>
<path d="M-394.51 -3640.39L14390.3 4452.8" stroke="#333333" stroke-width="0.25" stroke-miterlimit="10"/>
<path d="M-511.84 -3576.16L14272.9 4517.04" stroke="#333333" stroke-width="0.25" stroke-miterlimit="10"/>
<path d="M-629.169 -3511.92L14155.6 4581.27" stroke="#333333" stroke-width="0.25" stroke-miterlimit="10"/>
<path d="M-746.529 -3447.69L14038.3 4645.51" stroke="#333333" stroke-width="0.25" stroke-miterlimit="10"/>
<path d="M-863.858 -3383.46L13920.9 4709.74" stroke="#333333" stroke-width="0.25" stroke-miterlimit="10"/>
<path d="M-981.189 -3319.22L13803.6 4773.97" stroke="#333333" stroke-width="0.25" stroke-miterlimit="10"/>
<path d="M-1098.55 -3254.99L13686.2 4838.18" stroke="#333333" stroke-width="0.25" stroke-miterlimit="10"/>
<path d="M-1215.88 -3190.75L13568.9 4902.41" stroke="#333333" stroke-width="0.25" stroke-miterlimit="10"/>
<path d="M-1333.21 -3126.52L13451.6 4966.65" stroke="#333333" stroke-width="0.25" stroke-miterlimit="10"/>
<path d="M-1450.57 -3062.31L13334.2 5030.88" stroke="#333333" stroke-width="0.25" stroke-miterlimit="10"/>
<path d="M-1567.9 -2998.08L13216.9 5095.12" stroke="#333333" stroke-width="0.25" stroke-miterlimit="10"/>
<path d="M-1685.23 -2933.84L13099.5 5159.35" stroke="#333333" stroke-width="0.25" stroke-miterlimit="10"/>
<path d="M-1802.56 -2869.61L12982.2 5223.59" stroke="#333333" stroke-width="0.25" stroke-miterlimit="10"/>
<path d="M-1919.92 -2805.38L12864.9 5287.82" stroke="#333333" stroke-width="0.25" stroke-miterlimit="10"/>
<path d="M-2037.25 -2741.14L12747.5 5352.05" stroke="#333333" stroke-width="0.25" stroke-miterlimit="10"/>
<path d="M-2154.58 -2676.91L12630.2 5416.29" stroke="#333333" stroke-width="0.25" stroke-miterlimit="10"/>
<path d="M-2271.94 -2612.67L12512.8 5480.52" stroke="#333333" stroke-width="0.25" stroke-miterlimit="10"/>
<path d="M-2389.27 -2548.44L12395.5 5544.73" stroke="#333333" stroke-width="0.25" stroke-miterlimit="10"/>
<path d="M-2506.6 -2484.2L12278.2 5608.96" stroke="#333333" stroke-width="0.25" stroke-miterlimit="10"/>
<path d="M-2623.95 -2419.97L12160.8 5673.2" stroke="#333333" stroke-width="0.25" stroke-miterlimit="10"/>
<path d="M-2741.28 -2355.74L12043.5 5737.43" stroke="#333333" stroke-width="0.25" stroke-miterlimit="10"/>
<path d="M-2858.61 -2291.53L11926.2 5801.66" stroke="#333333" stroke-width="0.25" stroke-miterlimit="10"/>
<path d="M-2975.97 -2227.3L11808.8 5865.9" stroke="#333333" stroke-width="0.25" stroke-miterlimit="10"/>
<path d="M-3093.3 -2163.06L11691.5 5930.13" stroke="#333333" stroke-width="0.25" stroke-miterlimit="10"/>
<path d="M-3210.63 -2098.83L11574.1 5994.37" stroke="#333333" stroke-width="0.25" stroke-miterlimit="10"/>
<path d="M-3327.99 -2034.59L11456.8 6058.6" stroke="#333333" stroke-width="0.25" stroke-miterlimit="10"/>
<path d="M-3445.32 -1970.36L11339.4 6122.84" stroke="#333333" stroke-width="0.25" stroke-miterlimit="10"/>
<path d="M-3562.65 -1906.13L11222.1 6187.07" stroke="#333333" stroke-width="0.25" stroke-miterlimit="10"/>
<path d="M-3680.01 -1841.89L11104.8 6251.28" stroke="#333333" stroke-width="0.25" stroke-miterlimit="10"/>
<path d="M-3797.34 -1777.66L10987.4 6315.51" stroke="#333333" stroke-width="0.25" stroke-miterlimit="10"/>
<path d="M-3914.67 -1713.42L10870.1 6379.74" stroke="#333333" stroke-width="0.25" stroke-miterlimit="10"/>
<path d="M-4032.03 -1649.19L10752.8 6443.98" stroke="#333333" stroke-width="0.25" stroke-miterlimit="10"/>
<path d="M-4149.36 -1584.98L10635.4 6508.21" stroke="#333333" stroke-width="0.25" stroke-miterlimit="10"/>
<path d="M-4266.69 -1520.75L10518.1 6572.45" stroke="#333333" stroke-width="0.25" stroke-miterlimit="10"/>
<path d="M-4384.05 -1456.51L10400.8 6636.68" stroke="#333333" stroke-width="0.25" stroke-miterlimit="10"/>
<path d="M-4501.38 -1392.28L10283.4 6700.91" stroke="#333333" stroke-width="0.25" stroke-miterlimit="10"/>
<path d="M-4618.71 -1328.05L10166.1 6765.15" stroke="#333333" stroke-width="0.25" stroke-miterlimit="10"/>
<path d="M-4736.07 -1263.81L10048.7 6829.38" stroke="#333333" stroke-width="0.25" stroke-miterlimit="10"/>
<path d="M-4853.4 -1199.58L9931.37 6893.62" stroke="#333333" stroke-width="0.25" stroke-miterlimit="10"/>
<path d="M-4970.73 -1135.34L9814.04 6957.85" stroke="#333333" stroke-width="0.25" stroke-miterlimit="10"/>
<path d="M-5088.09 -1071.11L9696.71 7022.06" stroke="#333333" stroke-width="0.25" stroke-miterlimit="10"/>
<path d="M-5205.42 -1006.88L9579.35 7086.29" stroke="#333333" stroke-width="0.25" stroke-miterlimit="10"/>
<path d="M-5322.75 -942.641L9462.02 7150.53" stroke="#333333" stroke-width="0.25" stroke-miterlimit="10"/>
<path d="M-5440.11 -878.435L9344.69 7214.76" stroke="#333333" stroke-width="0.25" stroke-miterlimit="10"/>
<path d="M-5557.44 -814.201L9227.33 7278.99" stroke="#333333" stroke-width="0.25" stroke-miterlimit="10"/>
<path d="M-5674.77 -749.967L9110.01 7343.23" stroke="#333333" stroke-width="0.25" stroke-miterlimit="10"/>
<path d="M-5792.13 -685.733L8992.67 7407.46" stroke="#333333" stroke-width="0.25" stroke-miterlimit="10"/>
<path d="M-5909.46 -621.499L8875.32 7471.7" stroke="#333333" stroke-width="0.25" stroke-miterlimit="10"/>
<path d="M-6026.79 -557.264L8757.99 7535.93" stroke="#333333" stroke-width="0.25" stroke-miterlimit="10"/>
<path d="M-6144.14 -493.03L8640.66 7600.17" stroke="#333333" stroke-width="0.25" stroke-miterlimit="10"/>
<path d="M-6261.47 -428.795L8523.3 7664.4" stroke="#333333" stroke-width="0.25" stroke-miterlimit="10"/>
<path d="M-6378.8 -364.562L2774.59 4645.99L8405.97 7728.61" stroke="#333333" stroke-width="0.25" stroke-miterlimit="10"/>
<path d="M-6496.16 -300.327L8288.64 7792.84" stroke="#333333" stroke-width="0.25" stroke-miterlimit="10"/>
<path d="M-6613.49 -236.093L8171.28 7857.07" stroke="#333333" stroke-width="0.25" stroke-miterlimit="10"/>
<path d="M-6730.82 -171.887L8053.95 7921.31" stroke="#333333" stroke-width="0.25" stroke-miterlimit="10"/>
<path d="M-6848.18 -107.653L7936.62 7985.54" stroke="#333333" stroke-width="0.25" stroke-miterlimit="10"/>
<path d="M-6965.51 -43.4189L7819.26 8049.78" stroke="#333333" stroke-width="0.25" stroke-miterlimit="10"/>
<path d="M-7082.84 20.8154L7701.93 8114.01" stroke="#333333" stroke-width="0.25" stroke-miterlimit="10"/>
<path d="M-7200.2 85.0493L7584.6 8178.24" stroke="#333333" stroke-width="0.25" stroke-miterlimit="10"/>
<path d="M-7317.53 149.284L7467.24 8242.48" stroke="#333333" stroke-width="0.25" stroke-miterlimit="10"/>
<path d="M-7434.86 213.518L7349.91 8306.71" stroke="#333333" stroke-width="0.25" stroke-miterlimit="10"/>
<path d="M-7552.22 277.752L7232.58 8370.95" stroke="#333333" stroke-width="0.25" stroke-miterlimit="10"/>
<path d="M-7669.55 341.986L7115.22 8435.15" stroke="#333333" stroke-width="0.25" stroke-miterlimit="10"/>
<path d="M-7786.88 406.22L6997.89 8499.39" stroke="#333333" stroke-width="0.25" stroke-miterlimit="10"/>
<path d="M-7904.21 470.455L6880.56 8563.62" stroke="#333333" stroke-width="0.25" stroke-miterlimit="10"/>
<path d="M-8021.57 534.661L6763.2 8627.86" stroke="#333333" stroke-width="0.25" stroke-miterlimit="10"/>
<path d="M-8138.9 598.895L6645.87 8692.09" stroke="#333333" stroke-width="0.25" stroke-miterlimit="10"/>
<path d="M-8256.23 663.129L6528.54 8756.33" stroke="#333333" stroke-width="0.25" stroke-miterlimit="10"/>
<path d="M-8373.59 727.363L6411.18 8820.56" stroke="#333333" stroke-width="0.25" stroke-miterlimit="10"/>
<path d="M-8490.92 791.598L6293.85 8884.79" stroke="#333333" stroke-width="0.25" stroke-miterlimit="10"/>
<path d="M-8608.25 855.831L6176.52 8949.03" stroke="#333333" stroke-width="0.25" stroke-miterlimit="10"/>
<path d="M-8725.61 920.065L6059.16 9013.26" stroke="#333333" stroke-width="0.25" stroke-miterlimit="10"/>
<path d="M-8842.94 984.3L5941.83 9077.5" stroke="#333333" stroke-width="0.25" stroke-miterlimit="10"/>
<path d="M-8960.27 1048.53L5824.5 9141.7" stroke="#333333" stroke-width="0.25" stroke-miterlimit="10"/>
<path d="M-9077.63 1112.77L5707.14 9205.93" stroke="#333333" stroke-width="0.25" stroke-miterlimit="10"/>
<path d="M-9194.96 1177L5589.81 9270.17" stroke="#333333" stroke-width="0.25" stroke-miterlimit="10"/>
<path d="M-9312.29 1241.21L5472.48 9334.4" stroke="#333333" stroke-width="0.25" stroke-miterlimit="10"/>
<path d="M-9429.65 1305.44L5355.13 9398.64" stroke="#333333" stroke-width="0.25" stroke-miterlimit="10"/>
<path d="M-9546.98 1369.68L5237.79 9462.87" stroke="#333333" stroke-width="0.25" stroke-miterlimit="10"/>
<path d="M-9664.31 1433.91L5120.46 9527.11" stroke="#333333" stroke-width="0.25" stroke-miterlimit="10"/>
<path d="M-9781.67 1498.15L5003.11 9591.34" stroke="#333333" stroke-width="0.25" stroke-miterlimit="10"/>
<path d="M-9899 1562.38L4885.78 9655.57" stroke="#333333" stroke-width="0.25" stroke-miterlimit="10"/>
<path d="M-10016.3 1626.61L4768.44 9719.81" stroke="#333333" stroke-width="0.25" stroke-miterlimit="10"/>
<path d="M-10133.7 1690.85L4651.11 9784.04" stroke="#333333" stroke-width="0.25" stroke-miterlimit="10"/>
<path d="M-10251 1755.08L4533.76 9848.25" stroke="#333333" stroke-width="0.25" stroke-miterlimit="10"/>
<path d="M-10368.3 1819.32L4416.43 9912.48" stroke="#333333" stroke-width="0.25" stroke-miterlimit="10"/>
<path d="M-10485.7 1883.55L4299.1 9976.72" stroke="#333333" stroke-width="0.25" stroke-miterlimit="10"/>
<path d="M-10603 1947.76L4181.74 10041" stroke="#333333" stroke-width="0.25" stroke-miterlimit="10"/>
<path d="M-10720.4 2011.99L4064.41 10105.2" stroke="#333333" stroke-width="0.25" stroke-miterlimit="10"/>
<path d="M-10837.7 2076.22L3947.08 10169.4" stroke="#333333" stroke-width="0.25" stroke-miterlimit="10"/>
<path d="M-10955.1 2140.46L3829.72 10233.7" stroke="#333333" stroke-width="0.25" stroke-miterlimit="10"/>
<path d="M-11072.4 2204.69L3712.39 10297.9" stroke="#333333" stroke-width="0.25" stroke-miterlimit="10"/>
<path d="M-11189.7 2268.93L3595.06 10362.1" stroke="#333333" stroke-width="0.25" stroke-miterlimit="10"/>
</g>
</g>
</svg>
